PathFileType	4	(X/Y/Z)	C:/Users/opensim2020/Desktop/walking_exp_matlab/subject06_walking23_straight_03.trc	
DataRate	CameraRate	NumFrames	NumMarkers	Units	OrigDataRate	OrigDataStartFrame	OrigNumFrames	
100.00	100.00	8	45	mm	100.00	1822	94	
Frame#	Time	LFHD			RFHD			LBHD			RBHD			C7			T10			CLAV			STRN			RBAK			LSHO			LUPA			LELB			LFRM			LWRA			LWRB			LFIN			RSHO			RUPA			RELB			RFRM			RWRA			RWRB			RFIN			LASI			RASI			LPSI			RPSI			LTHI			LKNE			LTIB			LANK			LHEE			LTOE			RTHI			RKNE			RTIB			RANK			RHEE			RTOE			*39			*40			*41			*42			*43			*44			
		X1	Y1	Z1	X2	Y2	Z2	X3	Y3	Z3	X4	Y4	Z4	X5	Y5	Z5	X6	Y6	Z6	X7	Y7	Z7	X8	Y8	Z8	X9	Y9	Z9	X10	Y10	Z10	X11	Y11	Z11	X12	Y12	Z12	X13	Y13	Z13	X14	Y14	Z14	X15	Y15	Z15	X16	Y16	Z16	X17	Y17	Z17	X18	Y18	Z18	X19	Y19	Z19	X20	Y20	Z20	X21	Y21	Z21	X22	Y22	Z22	X23	Y23	Z23	X24	Y24	Z24	X25	Y25	Z25	X26	Y26	Z26	X27	Y27	Z27	X28	Y28	Z28	X29	Y29	Z29	X30	Y30	Z30	X31	Y31	Z31	X32	Y32	Z32	X33	Y33	Z33	X34	Y34	Z34	X35	Y35	Z35	X36	Y36	Z36	X37	Y37	Z37	X38	Y38	Z38	X39	Y39	Z39	X40	Y40	Z40	X41	Y41	Z41	X42	Y42	Z42	X43	Y43	Z43	X44	Y44	Z44	X45	Y45	Z45	

83	0.820	1334.45313	488.36588	1659.28064	1465.51611	497.84836	1658.58789	1348.22205	357.00851	1602.96387	1477.20508	367.60281	1606.80737	1406.92981	364.39868	1451.27112	1430.73608	321.74957	1124.77026	1413.41467	475.31726	1375.17297	1418.27502	514.78668	1202.08411	1492.86023	286.56561	1288.34131	1248.64111	424.87408	1399.33057	1180.35461	394.16824	1199.89172	1170.41663	368.37256	1089.86194	1149.02832	373.10181	939.32300	1189.44141	421.37726	818.42023	1154.49084	359.47311	820.75409	1155.70911	388.17346	734.16736	1571.71057	424.31686	1413.87366	1670.40625	374.99161	1225.54321	1689.32031	379.89270	1103.54932	1707.85901	406.67557	986.85242	1670.16052	480.14612	856.94403	1716.29395	431.59308	851.93396	1712.55518	477.33453	781.05933	1332.35449	502.78644	968.50806	1550.78613	492.05295	968.75635	1353.31104	342.94696	990.82922	1520.12476	342.19617	986.68677	1279.43066	470.65482	651.69763	1313.46802	495.32407	491.78949	1332.28076	454.04666	237.03828	1383.24609	438.90082	69.01685	1428.32202	395.46085	57.08990	1391.37781	580.41748	41.77988	1605.12122	488.47104	627.57806	1590.75732	526.95795	506.66965	1582.76270	347.74106	332.26758	1538.57092	197.74620	225.31805	1493.45007	155.65462	240.77710	1535.88599	256.84018	80.75813	1397.70618	391.33344	1700.51868															 
84	0.830	1333.52686	502.85553	1660.27502	1464.35718	512.31061	1659.46729	1347.41370	371.40057	1604.23425	1476.36621	382.06564	1608.21155	1406.08630	378.63953	1452.44775	1430.38708	335.53308	1126.39978	1412.78699	489.42139	1376.35864	1417.75769	528.79956	1203.25635	1492.00549	300.68994	1289.99512	1248.14502	439.72049	1400.48206	1179.84192	412.48380	1200.40503	1169.43604	389.31033	1089.98718	1147.89014	397.95239	939.64343	1189.15271	449.70474	820.47821	1153.32886	387.67004	820.72565	1154.32361	419.44885	735.33551	1570.93665	438.24197	1415.32190	1669.29553	388.37924	1226.90686	1687.71375	391.53564	1105.00574	1707.24280	414.64929	987.48022	1671.32141	483.04034	854.07593	1717.24670	433.97540	851.60071	1714.52490	476.63757	778.63708	1331.35779	515.19275	969.57495	1549.88025	506.40860	970.72852	1353.75305	355.48349	992.10669	1520.55115	356.79578	988.34589	1279.45898	479.21692	652.02393	1312.91016	500.76764	491.37582	1331.86499	456.28201	237.10057	1383.31860	439.34323	69.26737	1428.25977	395.74387	57.79281	1390.71924	580.78680	41.25354	1604.14685	509.78543	630.98859	1588.75720	551.17535	511.30212	1582.59741	376.67889	331.74167	1540.30408	230.51936	218.27885	1495.58679	186.60378	231.23251	1537.64856	297.98862	78.39833	1396.80066	405.90317	1701.75452															 
85	0.840	1332.56824	517.41455	1661.01282	1464.34229	527.80225	1660.79407	1346.60352	385.75253	1605.36707	1475.55286	396.53473	1609.40515	1405.32312	392.73404	1453.42273	1430.08826	349.35504	1127.73438	1412.21387	503.48709	1377.31653	1417.17822	542.81671	1204.22168	1491.30005	314.86288	1291.36438	1247.69275	454.20245	1401.39771	1179.13342	430.67319	1200.88623	1168.01477	409.22287	1090.05359	1146.83911	422.71445	940.06335	1188.58606	477.72083	822.52997	1152.29321	416.05493	820.78070	1152.95654	451.11166	736.71747	1570.17371	452.20450	1416.56689	1668.30652	401.51343	1228.24182	1686.36682	402.85071	1106.29712	1706.73682	422.22311	988.19250	1672.36292	485.22513	851.20331	1718.43677	436.37326	851.77716	1716.95361	476.45966	776.98883	1330.22461	527.54614	970.24463	1548.89331	520.90155	972.45074	1354.38232	368.23502	993.14532	1521.05493	371.41229	989.77197	1279.39771	487.75723	652.14453	1312.67212	505.71558	490.91806	1331.65942	458.03641	237.20892	1383.59644	439.91293	69.54958	1428.75635	396.06699	58.66110	1390.21033	581.42822	40.74949	1603.27710	530.72607	634.39789	1586.78113	574.74902	515.65515	1582.57288	405.63342	330.42923	1541.79834	263.99570	210.28552	1497.45630	218.69421	220.24089	1539.61829	340.44733	75.94652	1395.85608	420.57941	1702.82654															 
86	0.850	1331.66968	531.95648	1661.49451	1462.40857	541.52014	1660.82849	1345.85107	400.10104	1606.35535	1474.72778	410.97195	1610.43665	1404.59351	406.77466	1454.09253	1429.83630	362.99286	1128.79041	1411.57532	517.50891	1378.03357	1416.51221	556.79120	1204.93616	1490.66858	328.96729	1292.33411	1247.21008	468.42212	1402.05237	1178.51038	448.62833	1201.10461	1166.80652	429.36090	1089.97388	1145.77686	447.40479	940.36945	1188.16431	505.92963	824.75769	1151.31274	444.61484	821.04187	1151.85925	482.67563	738.48315	1569.42859	466.19586	1417.50830	1667.37476	414.23621	1229.44568	1685.18884	413.85031	1107.44934	1706.38782	429.60248	988.81879	1673.73804	488.18378	849.14825	1719.42432	439.05966	851.95087	1718.47131	475.63547	775.41864	1328.95215	539.91705	970.52905	1547.83643	535.49188	973.77393	1354.84534	380.96121	994.01746	1521.50989	385.95120	991.08704	1279.41223	496.14417	651.93811	1312.47046	511.41663	490.29922	1331.60486	459.62015	237.42488	1383.93689	440.57727	69.92220	1429.00806	396.76535	59.20476	1389.89709	581.95636	40.34610	1602.47803	551.20361	637.42114	1584.79980	597.48328	519.78711	1582.43909	434.78363	327.98730	1543.05103	298.28262	201.30750	1499.07898	251.70822	208.17889	1541.15991	383.26617	72.71545	1395.00098	435.33582	1703.59424															 
87	0.860	1330.77295	546.50049	1661.74719	1462.54541	557.11493	1661.69873	1345.10657	414.45340	1607.16235	1473.93652	425.41147	1611.29443	1403.95715	420.74936	1454.53186	1429.65747	376.86127	1129.59534	1411.01074	531.59491	1378.61169	1415.82349	570.75897	1205.43896	1490.08630	343.11438	1292.99268	1246.74609	482.37851	1402.48804	1177.58325	466.22418	1201.23218	1165.55188	449.26593	1089.71631	1144.67554	472.19257	940.70422	1187.38818	533.89569	827.09668	1150.36621	473.34415	821.46771	1150.70667	514.75690	740.54999	1568.78406	480.27402	1418.14417	1666.53699	426.58896	1230.44104	1684.24451	424.70795	1108.32898	1706.25122	436.76465	989.42609	1674.77405	490.89246	847.01770	1720.51477	441.88083	852.40900	1720.50073	475.63205	774.43317	1327.63574	552.32111	970.55743	1546.57507	550.21332	974.73279	1355.34265	393.88370	994.54010	1522.00439	400.51202	992.02155	1279.46570	504.58160	651.52649	1312.26697	517.02570	489.65506	1331.57556	461.70255	237.62851	1384.32324	441.23328	70.27563	1429.53589	397.39328	59.94902	1389.46008	582.49829	40.01282	1601.80847	571.33020	640.16998	1582.75940	619.48590	523.54132	1582.19031	464.01028	324.70123	1544.07910	333.46939	191.51955	1500.30603	286.01169	195.27563	1543.25134	427.54654	70.19709	1394.06494	450.09424	1704.28162															 
88	0.870	1329.92310	561.01892	1661.81006	1461.63843	571.78857	1661.79187	1344.33838	428.81665	1607.73303	1473.13306	439.86584	1611.91089	1403.31738	434.86682	1454.73840	1429.58862	390.62555	1130.03967	1410.34705	545.51819	1378.83704	1415.01660	584.73163	1205.70349	1489.52051	357.23962	1293.30615	1246.23792	496.00125	1402.64905	1176.92065	483.49194	1201.11011	1164.27673	468.89240	1089.28369	1143.67761	496.81570	941.09930	1187.11694	562.13025	829.73828	1149.53198	502.50604	822.02222	1149.85083	546.69489	742.87683	1568.18372	494.44031	1418.48010	1665.77734	438.71609	1231.11938	1683.73621	435.31442	1109.13489	1706.23975	444.04675	989.89026	1676.13403	494.06665	845.35974	1721.60181	444.97449	853.00958	1722.80286	476.19037	773.82452	1326.33447	564.73834	970.29376	1545.24597	565.03870	975.30414	1355.85632	406.67896	994.86053	1522.47498	415.13846	992.74963	1279.65906	513.14429	651.18671	1311.96484	522.77045	489.00610	1331.58545	464.34625	237.80156	1384.69189	441.77530	70.64348	1429.90002	397.68637	61.07483	1389.12024	582.96716	39.74237	1601.12158	591.14368	642.69794	1580.77173	640.93677	527.09827	1581.70129	493.37567	320.75635	1544.86780	369.49918	181.04622	1501.26733	321.52103	181.44566	1544.29492	470.91882	66.73621	1393.21387	464.83429	1704.72949															 
89	0.880	1329.07080	575.54327	1661.65515	1460.83411	586.44116	1661.71716	1343.65100	443.16766	1608.05066	1472.34875	454.27167	1612.22974	1402.90308	448.73062	1454.85962	1429.49341	404.41562	1130.13196	1409.72852	559.47919	1378.88379	1414.19995	598.64807	1205.70081	1488.97522	371.33694	1293.31140	1245.71143	509.48694	1402.55737	1175.81250	500.21976	1200.88110	1162.93408	488.43997	1088.69080	1142.71729	521.27789	941.53766	1186.85266	590.06226	832.69531	1149.00842	530.92694	822.81274	1149.12012	578.61060	745.65601	1567.63208	508.59424	1418.45508	1664.99109	450.74963	1231.56091	1683.28564	445.94849	1109.64246	1706.48279	451.34305	990.27911	1677.60681	497.42911	843.84210	1722.66956	448.25824	853.50836	1724.05664	476.19333	772.98669	1325.05737	577.11969	969.80933	1543.87793	579.89893	975.56207	1356.41064	419.51099	994.81854	1522.95923	429.84183	993.28394	1279.42249	519.96265	651.17578	1311.57605	528.59851	488.36588	1331.58374	467.27197	237.80516	1384.94946	442.33276	71.10273	1430.52039	398.57001	61.69984	1388.74731	583.26764	39.57683	1600.50598	610.57324	644.98737	1578.56018	661.35608	530.17242	1581.37537	522.65698	316.48630	1545.35303	406.40158	170.07198	1501.88208	358.05063	167.36386	1545.31995	515.16089	63.33842	1392.33752	479.51651	1704.89734															 
90	0.890	1328.25537	590.04791	1661.26587	1459.98267	601.01563	1661.35510	1342.95654	457.51633	1608.04871	1471.64111	468.70670	1612.26758	1402.44226	462.88766	1454.69495	1429.50977	418.32996	1129.82190	1409.09998	573.44733	1378.58923	1413.25659	612.51093	1205.42236	1488.39832	385.54092	1293.03381	1245.17529	522.74396	1402.22766	1174.86731	516.53516	1200.52954	1161.48364	508.12643	1088.02612	1141.76587	545.68848	942.08563	1186.61353	618.15393	835.99048	1148.36804	559.86670	823.70612	1148.60974	610.49939	748.89374	1567.13879	522.83234	1418.12451	1664.28259	462.85486	1231.74219	1682.95850	456.64975	1109.96851	1706.80371	458.96436	990.58051	1679.18103	501.05832	842.50397	1723.80273	451.82004	853.97516	1725.81372	477.16913	772.50220	1323.89502	589.60156	969.20013	1542.32996	594.78815	975.48157	1357.06006	432.33755	994.66174	1523.37769	445.57773	993.22150	1279.37390	529.14606	650.01727	1311.20532	534.50421	487.72568	1331.47363	470.12048	237.82436	1385.22522	442.85449	71.52108	1430.67126	399.56616	62.31373	1388.42566	583.57849	39.43835	1599.78625	629.59045	646.99170	1576.71680	681.69775	533.21985	1580.89966	552.00806	311.86298	1545.59924	444.20551	158.91556	1502.11353	395.91098	152.89354	1546.13000	559.69904	59.93601	1391.54993	494.18417	1704.78198															 
